# xmcd
#
# Track frame offsets: 
#        150
#        18097
#        39275
#        55710
#        74610
#        88637
#        111182
#        125527
#        144000
#        161562
#
# Disc length: 2383 seconds
#
# Revision: 3
# Processed by: cddbd v1.5.1PL0 Copyright (c) Steve Scherf et al.
# Submitted via: ExactAudioCopy v0.95b1
#
DISCID=79094d0a
DTITLE=梁静茹 - 勇气
DYEAR=2000
DGENRE=Pop
TTITLE0=勇气
TTITLE1=如果有一天
TTITLE2=半个月亮
TTITLE3=没有水的游泳池
TTITLE4=最烂的理由
TTITLE5=爱你不是两三天
TTITLE6=爱计较
TTITLE7=昨天
TTITLE8=多数是晴天
TTITLE9=最后
EXTD=YEAR: 2000
EXTT0=
EXTT1=
EXTT2=
EXTT3=
EXTT4=
EXTT5=
EXTT6=
EXTT7=
EXTT8=
EXTT9=
PLAYORDER=
